<svg width="25" height="24" viewBox="0 0 25 24" fill="none" xmlns="http://www.w3.org/2000/svg">
    <path
        d="M3.41699 9L2.80305 8.21065C2.55946 8.40011 2.41698 8.69142 2.41699 9.00002L3.41699 9ZM12.417 2L13.0309 1.21065C12.6698 0.929783 12.1642 0.929783 11.8031 1.21065L12.417 2ZM3.41723 20H2.41723C2.41724 20.5523 2.86495 21 3.41723 21V20ZM9.41699 20V21H10.417V20H9.41699ZM15.417 20H14.417V21H15.417V20ZM21.417 20V21C21.9693 21 22.417 20.5523 22.417 20H21.417ZM21.417 9H22.417C22.417 8.69141 22.2745 8.4001 22.0309 8.21065L21.417 9ZM4.03093 9.78935L13.0309 2.78935L11.8031 1.21065L2.80305 8.21065L4.03093 9.78935ZM4.41723 20L4.41699 8.99998L2.41699 9.00002L2.41723 20H4.41723ZM9.41699 19H3.41723V21H9.41699V19ZM10.417 20V15H8.41699V20H10.417ZM10.417 15C10.417 13.8954 11.3124 13 12.417 13V11C10.2079 11 8.41699 12.7909 8.41699 15H10.417ZM12.417 13C13.5216 13 14.417 13.8954 14.417 15H16.417C16.417 12.7909 14.6261 11 12.417 11V13ZM14.417 15V20H16.417V15H14.417ZM21.417 19H15.417V21H21.417V19ZM20.417 9V20H22.417V9H20.417ZM11.8031 2.78935L20.8031 9.78935L22.0309 8.21065L13.0309 1.21065L11.8031 2.78935Z"
        fill="grey" />
</svg>
