<svg width="18" height="18" viewBox="0 0 18 18" fill="none" xmlns="http://www.w3.org/2000/svg">
<path fill-rule="evenodd" clip-rule="evenodd" d="M10.375 12.3844C10.375 14.2829 11.914 15.8219 13.8125 15.8219C15.711 15.8219 17.25 14.2829 17.25 12.3844H10.375Z" fill="#FBC100"/>
<path fill-rule="evenodd" clip-rule="evenodd" d="M10.375 12.3845H17.25L14.4274 6.7393C14.1741 6.23257 13.4509 6.23257 13.1976 6.73929L10.375 12.3845ZM11.75 12.3845H15.875L13.8125 8.25945L11.75 12.3845Z" fill="#FBC100"/>
<path fill-rule="evenodd" clip-rule="evenodd" d="M0.75 10.3219C0.75 12.2204 2.28902 13.7594 4.1875 13.7594C6.08598 13.7594 7.625 12.2204 7.625 10.3219H0.75Z" fill="#FBC100"/>
<path fill-rule="evenodd" clip-rule="evenodd" d="M0.75 10.322H7.625L4.80242 4.6768C4.54906 4.17007 3.82594 4.17007 3.57258 4.67679L0.75 10.322ZM2.125 10.322H6.25L4.1875 6.19695L2.125 10.322Z" fill="#FBC100"/>
<path d="M6.9375 8.9469H1.4375V10.3219H6.9375V8.9469Z" fill="#FBC100"/>
<path d="M16.5625 11.0094H11.0625V12.3844H16.5625V11.0094Z" fill="#FBC100"/>
<path d="M14.9546 3.91785L4.76346 1.51996C4.426 1.44055 4.0782 1.60345 3.92316 1.91353C3.70725 2.34533 3.9509 2.86553 4.42084 2.9761L14.6119 5.374C14.9494 5.45341 15.2972 5.2905 15.4522 4.98043C15.6681 4.54862 15.4245 4.02842 14.9546 3.91785Z" fill="#FBC100"/>
</svg>
