<svg width="20" height="20" viewBox="0 0 20 20" fill="none" xmlns="http://www.w3.org/2000/svg">
<path d="M11.175 9.99983L15.5917 5.5915C15.7486 5.43458 15.8368 5.22175 15.8368 4.99983C15.8368 4.77791 15.7486 4.56508 15.5917 4.40816C15.4348 4.25124 15.2219 4.16309 15 4.16309C14.7781 4.16309 14.5653 4.25124 14.4084 4.40816L10 8.82483L5.5917 4.40816C5.43478 4.25124 5.22195 4.16309 5.00003 4.16309C4.77811 4.16309 4.56528 4.25124 4.40836 4.40816C4.25144 4.56508 4.16329 4.77791 4.16329 4.99983C4.16329 5.22175 4.25144 5.43458 4.40836 5.5915L8.82503 9.99983L4.40836 14.4082C4.33026 14.4856 4.26826 14.5778 4.22595 14.6793C4.18365 14.7809 4.16187 14.8898 4.16187 14.9998C4.16187 15.1098 4.18365 15.2188 4.22595 15.3203C4.26826 15.4219 4.33026 15.514 4.40836 15.5915C4.48583 15.6696 4.578 15.7316 4.67955 15.7739C4.7811 15.8162 4.89002 15.838 5.00003 15.838C5.11004 15.838 5.21896 15.8162 5.32051 15.7739C5.42206 15.7316 5.51423 15.6696 5.5917 15.5915L10 11.1748L14.4084 15.5915C14.4858 15.6696 14.578 15.7316 14.6795 15.7739C14.7811 15.8162 14.89 15.838 15 15.838C15.11 15.838 15.219 15.8162 15.3205 15.7739C15.4221 15.7316 15.5142 15.6696 15.5917 15.5915C15.6698 15.514 15.7318 15.4219 15.7741 15.3203C15.8164 15.2188 15.8382 15.1098 15.8382 14.9998C15.8382 14.8898 15.8164 14.7809 15.7741 14.6793C15.7318 14.5778 15.6698 14.4856 15.5917 14.4082L11.175 9.99983Z" fill="#333333"/>
</svg>
