<svg width="18" height="18" viewBox="0 0 18 18" fill="none" xmlns="http://www.w3.org/2000/svg">
<path d="M14.0627 2.55979C13.1047 2.15023 11.9991 2.15023 11.0411 2.55979C10.5621 2.76457 10.127 3.06472 9.76042 3.4431L8.99981 4.22799L8.23915 3.4431C7.49881 2.67917 6.4947 2.25 5.44771 2.25C4.40071 2.25 3.3966 2.67917 2.65626 3.4431C1.91592 4.20703 1.5 5.24315 1.5 6.32351C1.5 9.88884 6.75 14.2496 8.99981 15.7496C11.25 14.2496 14.9921 10.889 16.1994 7.88244C16.5963 6.89398 16.5963 5.75302 16.1994 4.76456C15.8025 3.7761 15.0207 2.96936 14.0627 2.55979Z" stroke="#333333" stroke-width="1.66667" stroke-linecap="round" stroke-linejoin="round"/>
</svg>
